<svg id="Layer_1" data-name="Layer 1" xmlns="http://www.w3.org/2000/svg" viewBox="0 0 60 30"><defs><style>.cls-1,.cls-2{fill:#606060;}.cls-2{stroke:#606060;stroke-miterlimit:10;stroke-width:0.5px;}</style></defs><title>Archive</title><path class="cls-1" d="M15.43,21.81c-.09.67-.6.83-1.08,1a.71.71,0,0,1-.93-.39,1.38,1.38,0,0,1-.14-.27,1.49,1.49,0,0,0-2-1.21.54.54,0,0,1-.18,0,1.71,1.71,0,0,0-2.24,1.31c-.21.68-.67.74-1.39.4S6.66,22,7,21.33c1-2.17,2.09-4.34,3.13-6.51a1.11,1.11,0,0,1,1.07-.69,1.07,1.07,0,0,1,1,.71q1.56,3.22,3.11,6.45A3.14,3.14,0,0,1,15.43,21.81Zm-4.32-4.13-.64,1.37h1.31Z"/><path class="cls-1" d="M54.66,16.9c0-.79,0-1.52,0-2.24s.25-1,1.1-1,1,.21,1,1q0,3.31,0,6.65c0,.44.16,1-.4,1.25a1.35,1.35,0,0,1-1.7-.3,2.44,2.44,0,0,1-3.25-.5,3.15,3.15,0,0,1-.3-4A2.62,2.62,0,0,1,54.66,16.9Zm-.06,2.75a1,1,0,0,0-1.9,0,1,1,0,1,0,1.9,0Z"/><path class="cls-1" d="M29,17a2.62,2.62,0,0,1,4,2.36c0,.84,0,1.69,0,2.53,0,.62-.26.81-1,.83S31,22.57,31,21.94s0-1.41,0-2.11-.34-1.17-.94-1.15-1,.45-1,1.19,0,1.3,0,1.94-.29.93-1.12.92-1-.22-1-.92q0-3.63,0-7.24c0-.69.25-.9,1-.91s1.09.2,1.11.88S29,16.17,29,17Z"/><path class="cls-1" d="M46.1,20.35c.5.69,1.2.81,2.25.48.77-.24,1.31.12,1.29.91a1,1,0,0,1-.37.73A3.68,3.68,0,0,1,44,20.64a3.09,3.09,0,0,1,.9-3.43,3.43,3.43,0,0,1,3.7-.53,2.33,2.33,0,0,1,1.37,2.49,1.19,1.19,0,0,1-1.35,1.17C47.79,20.36,47,20.35,46.1,20.35Zm0-1.16c.48,0,.89,0,1.29,0,.17,0,.32-.2.48-.31-.14-.16-.25-.41-.43-.48C46.94,18.19,46.43,18.49,46.09,19.19Z"/><path class="cls-1" d="M24.06,16.32a17.73,17.73,0,0,1,1.85.79c.48.27.5.72.17,1.28s-.76.78-1.29.55c-.28-.12-.62-.35-.86-.28a1.41,1.41,0,0,0-.85.67,1.3,1.3,0,0,0,.24,1,.8.8,0,0,0,1.12.14c.85-.53,1.2-.13,1.6.37a.84.84,0,0,1-.2,1.36,3,3,0,0,1-3.07.33,2.94,2.94,0,0,1-1.94-2.46A3.1,3.1,0,0,1,24,16.47Z"/><path class="cls-1" d="M40.21,19.88c.51-1,.95-1.85,1.41-2.71s1-1,1.78-.34a.77.77,0,0,1,.25,1.08c-.83,1.47-1.65,2.94-2.54,4.37a1.06,1.06,0,0,1-1.85-.05Q38,20.15,36.81,18c-.35-.62-.16-1.05.55-1.41s1-.25,1.34.41C39.19,17.92,39.66,18.84,40.21,19.88Z"/><path class="cls-1" d="M18.14,17a2,2,0,0,1,2-.42c.54.18.71.61.52,1.3s-.51.9-1.08.77c-1.16-.25-1.48,0-1.49,1.23,0,.66,0,1.33,0,2s-.28.86-1.05.86S16,22.52,16,21.87c0-1.48,0-3,0-4.46,0-.27.22-.73.39-.75a6.55,6.55,0,0,1,1.52.1C18,16.76,18,16.89,18.14,17Z"/><path class="cls-1" d="M34,19.6c0-.75,0-1.49,0-2.23s.24-.81,1-.84,1.11.17,1.12.79c0,1.54,0,3.09,0,4.64,0,.63-.35.8-1.2.77-.64,0-.87-.22-.88-.84S34,20.36,34,19.6Z"/><path class="cls-1" d="M34.11,8.57c.26-.66.78-1,1.29-.79.18.07.3.31.45.47a1.82,1.82,0,0,1-.52.33,3.74,3.74,0,0,1-.82,0Z"/><path class="cls-1" d="M9.26,13.22a3,3,0,0,1-.4-.24.64.64,0,0,1-.23-.35c-.3-1.27-1.15-1.41-2.31-1.41s-1.87.19-2.24,1.36c-.24.71-.68.78-1.41.44s-.87-.69-.55-1.37c1-2.21,2.11-4.4,3.17-6.59a1.14,1.14,0,0,1,1.08-.73,1.12,1.12,0,0,1,1,.75l3.1,6.42C11,12.42,10.41,13.24,9.26,13.22ZM5.67,9.37H7L6.35,8Z"/><path class="cls-1" d="M34.61,10.67c.48.7,1.2.83,2.27.5.77-.24,1.3.08,1.32.86a1.07,1.07,0,0,1-.36.8A3.77,3.77,0,0,1,32.44,11a3.19,3.19,0,0,1,.89-3.57,3.49,3.49,0,0,1,3.77-.54,2.37,2.37,0,0,1,1.42,2.53,1.23,1.23,0,0,1-1.37,1.21C36.33,10.69,35.51,10.67,34.61,10.67Zm0-1.2.41,0a3.28,3.28,0,0,0,.83,0,1.6,1.6,0,0,0,.53-.34c-.15-.16-.27-.4-.46-.47C35.41,8.48,34.89,8.8,34.62,9.47Z"/><path class="cls-1" d="M19.84,8.94a12.71,12.71,0,0,0,0,1.64.77.77,0,0,0,.54.46c.79.13.94.29.89,1.17,0,.68-.25.89-1,.89a4.68,4.68,0,0,1-.84-.06A2,2,0,0,1,17.69,11c0-.66,0-1.31,0-2-1.07-.28-1.13-.38-1.09-1.4,0-.69.42-.88,1.08-.81,0-.47,0-.89,0-1.3,0-.64.26-.84,1-.87s1.15.19,1.19.84c0,.43,0,.87,0,1.29,1.71.12,1.83.2,1.82,1.14S21.5,8.88,19.84,8.94Z"/><path class="cls-1" d="M14,6.56a16.53,16.53,0,0,1,1.89.81c.48.27.5.75.17,1.3s-.76.8-1.31.57c-.29-.13-.63-.36-.88-.29a1.4,1.4,0,0,0-.86.69,1.24,1.24,0,0,0,.24,1,.8.8,0,0,0,1.14.15c.72-.49,1.2-.27,1.7.47a.82.82,0,0,1-.18,1.22,3.05,3.05,0,0,1-3.11.45,3,3,0,0,1-2.07-2.43,3.18,3.18,0,0,1,3.21-3.8Z"/><path class="cls-1" d="M28.58,10.19c.51-1,1-1.86,1.44-2.74s1-1,1.81-.38a.83.83,0,0,1,.26,1.16c-.85,1.47-1.68,2.95-2.57,4.4a1.08,1.08,0,0,1-1.89,0c-.87-1.41-1.7-2.85-2.51-4.3-.36-.64-.18-1.07.54-1.45s1-.26,1.4.45C27.56,8.21,28,9.14,28.58,10.19Z"/><path class="cls-1" d="M22.21,10c0-.76,0-1.52,0-2.28s.24-.88,1-.9,1.13.17,1.14.8q.06,2.37,0,4.74c0,.64-.35.82-1.22.78-.65,0-.88-.23-.9-.86s0-1.52,0-2.28Z"/><path class="cls-1" d="M22.21,4.91c0-.84.22-1.06,1.06-1.06s1.08.25,1.09,1.06S24.11,6,23.25,6,22.2,5.77,22.21,4.91Z"/><path class="cls-2" d="M41.59,7.81a1.69,1.69,0,0,1,0-.92,1.75,1.75,0,0,1,.57-.8,2.69,2.69,0,0,1,1.06-.51,2.47,2.47,0,0,1,1.17,0,1.7,1.7,0,0,1,.85.45,1.56,1.56,0,0,1,.43.74,1.5,1.5,0,0,1-.13,1.08,4.91,4.91,0,0,1-.88,1.13l.61.45.54.38.47.3c0-.11.06-.31.1-.59a2.17,2.17,0,0,1,.16-.64.47.47,0,0,1,.35-.27.62.62,0,0,1,.46.06.63.63,0,0,1,.29.37,2.44,2.44,0,0,1,0,.67,6,6,0,0,1-.23,1l.72.34a4,4,0,0,1,.61.32.49.49,0,0,1,.17.29.6.6,0,0,1-.07.49.63.63,0,0,1-.38.29.79.79,0,0,1-.5,0c-.17-.06-.55-.23-1.13-.5a3.44,3.44,0,0,1-.56.68,2.78,2.78,0,0,1-.68.48,3.85,3.85,0,0,1-.87.32,3.26,3.26,0,0,1-1.18.1,2.45,2.45,0,0,1-1-.28,2.35,2.35,0,0,1-.67-.57,2.21,2.21,0,0,1-.36-.74,2,2,0,0,1-.05-.73,1.94,1.94,0,0,1,.2-.66,3.09,3.09,0,0,1,.42-.62,5.34,5.34,0,0,1,.63-.63A6.54,6.54,0,0,1,42,8.52,1.59,1.59,0,0,1,41.59,7.81Zm2,2.06a3,3,0,0,0-.62.79,1.08,1.08,0,0,0-.08.77,1.15,1.15,0,0,0,.21.43,1.3,1.3,0,0,0,.37.32,1.37,1.37,0,0,0,.49.18,1.52,1.52,0,0,0,.52,0,2.06,2.06,0,0,0,.48-.21,1.9,1.9,0,0,0,.4-.35,4,4,0,0,0,.36-.48c-.37-.2-.71-.41-1-.62S44.06,10.19,43.63,9.87Zm.17-1.52a4.72,4.72,0,0,0,.6-.74.75.75,0,0,0,.1-.6.73.73,0,0,0-.37-.47.91.91,0,0,0-1.16.3.69.69,0,0,0-.11.57.92.92,0,0,0,.17.3,2.87,2.87,0,0,0,.31.29Z"/></svg>