<svg id="Layer_1" data-name="Layer 1" xmlns="http://www.w3.org/2000/svg" viewBox="0 0 60 30"><defs><style>.cls-1{fill:#606060;}</style></defs><title>Archive</title><path class="cls-1" d="M13.25,13.83a2.78,2.78,0,0,1-.43-.25.77.77,0,0,1-.23-.36c-.31-1.33-1.21-1.49-2.43-1.48s-1.95.2-2.35,1.42c-.24.75-.71.82-1.47.46s-.92-.72-.58-1.44C6.86,9.87,8,7.57,9.09,5.27a1.19,1.19,0,0,1,2.23,0C12.4,7.54,13.49,9.78,14.57,12,15,13,14.45,13.85,13.25,13.83Zm-3.77-4h1.43l-.72-1.47Z"/><path class="cls-1" d="M41.31,22.73v.87c0,.88-.24,1.09-1.14,1.09s-1.12-.24-1.12-1.12q0-3.74,0-7.47c0-.88.24-1.1,1.13-1.1s1.12.21,1.13,1.1v3.83c.48-.44.84-.8,1.23-1.12.89-.72,1.48-.58,2,.41a.7.7,0,0,1-.14,1l-1.34,1.21c.55.45,1.08.88,1.6,1.33s.57.84.11,1.46-.85.75-1.42.34A14.3,14.3,0,0,1,42,23.38Z"/><path class="cls-1" d="M29.82,24.19a2.6,2.6,0,0,1-3.61-.63,3.31,3.31,0,0,1,0-4.41,2.55,2.55,0,0,1,3.57-.56,1.5,1.5,0,0,1,1.8-.41,1,1,0,0,1,.42.69c0,1.67,0,3.34,0,5,0,.81-1.23,1.12-2,.55A2.71,2.71,0,0,1,29.82,24.19ZM28.71,22.4a1.12,1.12,0,0,0,1-1,1.09,1.09,0,0,0-1-1,1,1,0,0,0-1,1A1.06,1.06,0,0,0,28.71,22.4Z"/><path class="cls-1" d="M39.84,11.16c.51.74,1.26.87,2.39.52.8-.25,1.36.08,1.38.9a1.11,1.11,0,0,1-.38.85,4,4,0,0,1-5.66-1.88,3.32,3.32,0,0,1,.93-3.74,3.68,3.68,0,0,1,4-.58,2.49,2.49,0,0,1,1.48,2.66,1.28,1.28,0,0,1-1.43,1.27C41.65,11.18,40.79,11.16,39.84,11.16Zm0-1.26.42,0a3.7,3.7,0,0,0,.88,0,1.82,1.82,0,0,0,.55-.35c-.15-.17-.28-.43-.48-.5C40.68,8.86,40.14,9.2,39.86,9.9Z"/><path class="cls-1" d="M35.05,20.09a6.14,6.14,0,0,0,.7.3c.27.08.57.1.86.17,1.43.38,2,1.23,1.53,2.86a1.91,1.91,0,0,1-1,1.08,4.46,4.46,0,0,1-3.88-.25.71.71,0,0,1-.4-1c.26-.7.58-1,1.1-.85.34.09.65.31,1,.39a7.48,7.48,0,0,0,1.16.12l0-.26-.63-.23c-.42-.14-.85-.23-1.25-.4A2.18,2.18,0,0,1,33,19.56c.13-.88.76-1.38,1.87-1.56a4.65,4.65,0,0,1,2.58.32c.45.18.67.46.47,1-.28.7-.59.93-1.16.73a2.09,2.09,0,0,0-1.66-.13Z"/><path class="cls-1" d="M48.85,22.61l-1.23-.32a2.31,2.31,0,0,1-1.85-2.82A1.63,1.63,0,0,1,47,18.16a4.61,4.61,0,0,1,3.25.16.68.68,0,0,1,.43,1c-.26.67-.58.9-1.11.71a1.79,1.79,0,0,0-1.75,0,4.22,4.22,0,0,0,.67.34c.48.15,1,.22,1.44.4A1.65,1.65,0,0,1,51,22.62a1.78,1.78,0,0,1-1.15,1.9A4.63,4.63,0,0,1,46,24.25a.72.72,0,0,1-.39-1c.21-.45.42-1,1.09-.79.31.09.6.29.92.37a10,10,0,0,0,1.21.14Z"/><path class="cls-1" d="M24.35,9.35a14,14,0,0,0,0,1.72.85.85,0,0,0,.56.48c.83.13,1,.3.94,1.22,0,.72-.26.93-1,.94a4.3,4.3,0,0,1-.88-.07,2,2,0,0,1-1.87-2.15c0-.69,0-1.39,0-2.06C21,9.14,20.89,9,20.93,8c0-.72.45-.93,1.14-.85,0-.49,0-.93,0-1.36,0-.67.26-.89,1-.91s1.2.19,1.24.87c0,.45,0,.91,0,1.36,1.79.13,1.92.21,1.9,1.19S26.09,9.28,24.35,9.35Z"/><path class="cls-1" d="M20.82,20.35c-1-.08-1.14-.2-1.14-1.09s.12-1.1,1.13-1.18c0-.44,0-.9,0-1.35,0-.65.27-.87,1-.89s1.16.19,1.23.83c0,.23,0,.46,0,.69V18a7.92,7.92,0,0,1,1.68.44c.18.09.2.61.2.93,0,.84-.12.9-1.87,1a15.11,15.11,0,0,0,0,1.78c0,.16.36.37.57.4.8.12.95.29.92,1.17s-.25,1-1,1a4.42,4.42,0,0,1-.63,0,2.14,2.14,0,0,1-2.16-2.29C20.8,21.73,20.82,21.06,20.82,20.35Z"/><path class="cls-1" d="M18.21,6.85a18.38,18.38,0,0,1,2,.84c.51.29.53.79.18,1.37s-.8.84-1.38.6c-.3-.13-.66-.38-.91-.3a1.48,1.48,0,0,0-.91.72,1.33,1.33,0,0,0,.26,1.06.85.85,0,0,0,1.19.16c.76-.52,1.25-.29,1.78.49a.86.86,0,0,1-.18,1.28,3.21,3.21,0,0,1-3.27.47A3.11,3.11,0,0,1,14.78,11a3.33,3.33,0,0,1,3.37-4Z"/><path class="cls-1" d="M33.52,10.66,35,7.78c.51-1,1.06-1.07,1.9-.4a.86.86,0,0,1,.27,1.22c-.88,1.54-1.75,3.1-2.69,4.62a1.13,1.13,0,0,1-2,0c-.91-1.49-1.78-3-2.63-4.51-.39-.68-.19-1.13.56-1.52s1.08-.29,1.48.46C32.44,8.58,32.94,9.55,33.52,10.66Z"/><path class="cls-1" d="M26.83,10.41c0-.79,0-1.59,0-2.39s.24-.92,1-.95,1.19.19,1.2.85c0,1.66,0,3.32,0,5,0,.68-.37.86-1.28.82-.68,0-.92-.24-.94-.91s0-1.59,0-2.39Z"/><path class="cls-1" d="M26.83,5.12c0-.89.23-1.12,1.11-1.12s1.14.26,1.15,1.12-.27,1.16-1.17,1.15S26.83,6,26.83,5.12Z"/></svg>