<svg id="Layer_1" data-name="Layer 1" xmlns="http://www.w3.org/2000/svg" viewBox="0 0 60 30"><defs><style>.cls-1,.cls-2,.cls-3{fill:#606060;}.cls-2,.cls-3{stroke:#606060;stroke-miterlimit:10;}.cls-3{stroke-width:0.5px;}</style></defs><title>Archive</title><path class="cls-1" d="M11.43,12.39c-.1.71-.64.88-1.15,1.06a.77.77,0,0,1-1-.43.82.82,0,0,1-.14-.28A1.59,1.59,0,0,0,7,11.45a.61.61,0,0,1-.19,0,1.83,1.83,0,0,0-2.39,1.39c-.22.73-.71.8-1.48.43s-.88-.72-.56-1.39c1.1-2.32,2.22-4.63,3.34-6.94A1.19,1.19,0,0,1,6.88,4.2,1.17,1.17,0,0,1,7.94,5l3.31,6.87A4,4,0,0,1,11.43,12.39ZM6.83,8,6.15,9.45H7.54Z"/><path class="cls-1" d="M53.23,7.15c0-.84,0-1.61,0-2.38s.26-1.08,1.16-1.07,1.08.23,1.08,1.1q0,3.54,0,7.08c0,.48.18,1.09-.42,1.34a1.45,1.45,0,0,1-1.82-.33,2.59,2.59,0,0,1-3.46-.53,3.35,3.35,0,0,1-.32-4.21A2.81,2.81,0,0,1,53.23,7.15Zm-.07,2.93a1,1,0,0,0-1-1,1,1,0,0,0-1.06,1,1,1,0,1,0,2,0Z"/><path class="cls-1" d="M25.92,7.28a2.79,2.79,0,0,1,4.3,2.51c0,.89,0,1.79,0,2.69,0,.67-.27.87-1,.88s-1.15-.16-1.19-.83,0-1.51,0-2.26S27.62,9,27,9.05s-1.05.48-1.05,1.27,0,1.38,0,2.07-.31,1-1.2,1-1-.23-1-1q0-3.86,0-7.7c0-.75.25-1,1.06-1s1.15.22,1.18.94S25.92,6.37,25.92,7.28Z"/><path class="cls-1" d="M44.1,10.83c.54.74,1.29.87,2.4.52.82-.26,1.4.12,1.38,1a1.13,1.13,0,0,1-.39.77,3.94,3.94,0,0,1-5.66-1.95,3.31,3.31,0,0,1,1-3.66,3.64,3.64,0,0,1,3.94-.55A2.47,2.47,0,0,1,48.2,9.58a1.29,1.29,0,0,1-1.44,1.25Zm0-1.23a12.22,12.22,0,0,0,1.37,0c.18,0,.34-.21.51-.32-.15-.18-.26-.44-.45-.52C45,8.53,44.46,8.85,44.1,9.6Z"/><path class="cls-1" d="M20.62,6.54a17.14,17.14,0,0,1,2,.84c.52.28.53.76.18,1.36s-.8.84-1.37.59c-.3-.13-.66-.37-.91-.3a1.48,1.48,0,0,0-.91.72,1.33,1.33,0,0,0,.26,1.06A.85.85,0,0,0,21,11c.9-.57,1.28-.14,1.7.39a.89.89,0,0,1-.21,1.45,3.22,3.22,0,0,1-3.27.35,3.13,3.13,0,0,1-2.07-2.62,3.32,3.32,0,0,1,3.38-3.84Z"/><path class="cls-1" d="M37.83,10.33l1.5-2.88c.5-.94,1.07-1,1.9-.37a.83.83,0,0,1,.27,1.16c-.89,1.55-1.76,3.12-2.71,4.65a1.13,1.13,0,0,1-2-.06q-1.35-2.22-2.62-4.49c-.37-.67-.16-1.12.59-1.5s1.05-.28,1.43.43C36.75,8.24,37.25,9.22,37.83,10.33Z"/><path class="cls-1" d="M14.31,7.27a2.13,2.13,0,0,1,2.15-.45c.57.19.75.64.55,1.38s-.54,1-1.15.82c-1.24-.27-1.58,0-1.58,1.31,0,.71,0,1.42,0,2.13s-.29.91-1.12.9S12,13.14,12,12.45c0-1.58,0-3.17,0-4.75,0-.28.24-.78.41-.8a6.82,6.82,0,0,1,1.62.1C14.15,7,14.21,7.14,14.31,7.27Z"/><path class="cls-1" d="M31.17,10c0-.79,0-1.59,0-2.38s.25-.86,1-.89,1.19.18,1.2.84c0,1.65,0,3.3,0,4.94,0,.68-.36.86-1.27.82-.68,0-.92-.23-.94-.89C31.16,11.66,31.17,10.84,31.17,10Z"/><path class="cls-2" d="M31.17,4.83c0-.89.22-1.12,1.1-1.13s1.16.28,1.15,1.16S33.14,6,32.27,6,31.17,5.72,31.17,4.83Z"/><path class="cls-3" d="M56,21l.92-3.83s.28-1.15,1-.87c0,0,.82-.13.71,1.3l-1.09,4.48s-.39,1.38-2.23.82a1.53,1.53,0,0,1-1-.72C54,21.54,53.3,20,53.3,20s-.38-1.08.61-1.29c0,0,.67-.24,1.1.63A17.43,17.43,0,0,0,56,21Z"/><path class="cls-1" d="M41.21,22v.84c0,.85-.24,1.07-1.11,1.06S39,23.63,39,22.78V15.52c0-.86.24-1.07,1.1-1.07s1.09.21,1.1,1.07v3.72c.46-.43.81-.78,1.2-1.09.86-.7,1.43-.57,1.94.4a.69.69,0,0,1-.14.93c-.41.38-.84.76-1.3,1.17.53.44,1.05.86,1.56,1.3s.55.81.1,1.42-.82.73-1.38.33a16.81,16.81,0,0,1-1.29-1.11Z"/><path class="cls-1" d="M30.05,23.37a2.53,2.53,0,0,1-3.51-.6,3.24,3.24,0,0,1,0-4.29A2.48,2.48,0,0,1,30,17.94a1.45,1.45,0,0,1,1.75-.4.94.94,0,0,1,.41.66c0,1.63,0,3.25,0,4.88,0,.78-1.19,1.08-1.93.53A1.79,1.79,0,0,1,30.05,23.37ZM29,21.63a1.06,1.06,0,0,0,1-1,1,1,0,0,0-1-1,1,1,0,0,0-1,1A1,1,0,0,0,29,21.63Z"/><path class="cls-1" d="M35.13,19.39a4.48,4.48,0,0,0,.68.29c.27.08.56.1.83.17,1.4.37,2,1.19,1.5,2.78a1.84,1.84,0,0,1-1,1,4.23,4.23,0,0,1-3.76-.24.68.68,0,0,1-.4-.94c.26-.69.57-1,1.08-.83.33.08.62.3,1,.37a7.1,7.1,0,0,0,1.13.12l.05-.25-.61-.23a10.19,10.19,0,0,1-1.22-.39,2.1,2.1,0,0,1-1.21-2.4c.13-.86.74-1.34,1.82-1.51a4.55,4.55,0,0,1,2.5.3c.44.18.66.45.45.95-.27.68-.57.9-1.12.7a2.06,2.06,0,0,0-1.61-.12Z"/><path class="cls-1" d="M48.54,21.84l-1.2-.31a2.25,2.25,0,0,1-1.8-2.73,1.59,1.59,0,0,1,1.17-1.28,4.42,4.42,0,0,1,3.16.16.66.66,0,0,1,.42,1c-.26.64-.57.87-1.08.68a1.76,1.76,0,0,0-1.71,0,4.45,4.45,0,0,0,.66.32c.46.15,1,.22,1.4.39a1.61,1.61,0,0,1,1.08,1.78,1.72,1.72,0,0,1-1.11,1.84,4.51,4.51,0,0,1-3.78-.25.7.7,0,0,1-.37-1c.2-.44.4-.95,1-.77.31.08.59.28.9.35a11.89,11.89,0,0,0,1.18.15Z"/><path class="cls-1" d="M21.31,19.65c-1-.08-1.11-.2-1.11-1.07s.12-1.06,1.1-1.14c0-.43,0-.87,0-1.31,0-.63.27-.84,1-.86s1.13.18,1.19.8c0,.23,0,.45,0,.67v.59a9.11,9.11,0,0,1,1.64.43c.17.09.19.59.19.91,0,.81-.11.86-1.81,1a16.61,16.61,0,0,0,0,1.73c0,.16.35.36.56.39.77.12.92.28.89,1.14s-.24.94-1,.95a4.14,4.14,0,0,1-.61,0,2.07,2.07,0,0,1-2.1-2.22C21.29,21,21.31,20.34,21.31,19.65Z"/><path class="cls-1" d="M29,21.63a1,1,0,0,1-1-1,1,1,0,0,1,1-1,1,1,0,0,1,1,1A1.06,1.06,0,0,1,29,21.63Z"/><path class="cls-1" d="M20.49,21.25h31a.75.75,0,0,0,0-1.5h-31a.75.75,0,0,0,0,1.5Z"/></svg>